<svg width="1064" height="98" viewBox="0 0 1064 98" fill="none" xmlns="http://www.w3.org/2000/svg">
<g clip-path="url(#clip0_16_84)">
<rect width="1064" height="98" fill="#2F2F2F"/>
<path d="M124.776 44.06H121.736V41.76H119.136V44.06H116.096V46.18H124.776V44.06ZM124.316 51.56V51.42C124.316 50.66 124.176 49.96 123.916 49.36H125.896V51.56H124.316ZM120.396 53.66C119.456 53.66 118.756 52.84 118.756 51.44C118.756 50.02 119.456 49.2 120.396 49.2C121.356 49.2 122.036 50.02 122.036 51.44C122.036 52.84 121.356 53.66 120.396 53.66ZM125.896 47.26H123.916V49.36C123.296 47.92 121.996 47 120.396 47C118.116 47 116.476 48.84 116.476 51.44C116.476 54.04 118.116 55.88 120.396 55.88C121.956 55.88 123.196 55.02 123.856 53.66H125.896V58.9H128.356V41.62H125.896V47.26ZM129.416 41.3V59.72H131.916V41.3H129.416ZM142.794 49.32C141.114 49.58 139.654 49.68 137.674 49.7V48.14H142.194V46.14H137.674V44.62H142.374V42.54H135.134V51.82H136.414C139.154 51.82 140.934 51.76 143.034 51.42L142.794 49.32ZM137.534 55.44H147.574V59.74H150.214V53.34H137.534V55.44ZM147.714 41.3V45.82H146.234V41.62H143.774V52.42H146.234V47.92H147.714V52.54H150.214V41.3H147.714ZM161.448 45.14H167.408V43H158.828V55.34H160.388C163.588 55.34 166.108 55.24 168.888 54.74L168.628 52.56C166.248 52.96 164.068 53.1 161.448 53.14V45.14ZM175.208 48.1H172.528V41.3H169.888V59.76H172.528V50.28H175.208V48.1ZM184.826 43.74C187.166 43.74 188.606 44.32 188.606 45.46C188.606 46.6 187.166 47.18 184.826 47.18C182.526 47.18 181.066 46.6 181.066 45.46C181.066 44.32 182.526 43.74 184.826 43.74ZM184.826 49.28C188.806 49.28 191.446 47.8 191.446 45.46C191.446 43.14 188.806 41.64 184.826 41.64C180.866 41.64 178.206 43.14 178.206 45.46C178.206 47.8 180.866 49.28 184.826 49.28ZM181.126 53.88H178.446V59.4H191.366V57.3H181.126V53.88ZM176.506 50.24V52.34H183.646V55.5H186.346V52.34H193.186V50.24H176.506ZM201.665 49.08H198.045V46.72H201.665V49.08ZM204.265 42.38H201.665V44.7H198.045V42.38H195.445V51.14H204.265V42.38ZM200.065 54.94H209.525V52.84H197.445V59.5H209.865V57.4H200.065V54.94ZM209.405 45.48V41.3H206.765V52.04H209.405V47.66H211.845V45.48H209.405ZM227.643 53.46C228.383 49.54 228.383 46.94 228.383 44.64V42.88H215.003V44.98H225.743C225.743 47.12 225.703 49.68 225.003 53.16L227.643 53.46ZM221.843 55.38V49.04H219.203V55.38H213.323V57.5H229.983V55.38H221.843ZM253.037 49.38C248.777 48.76 246.557 46.1 246.557 43.62V42.28H243.737V43.62C243.737 46.08 241.477 48.76 237.277 49.38L238.337 51.58C241.577 51.02 243.937 49.34 245.137 47.18C246.337 49.34 248.697 51 251.957 51.58L253.037 49.38ZM249.477 55.46V51.76H246.857V55.46H243.617V51.76H240.977V55.46H236.877V57.58H253.577V55.46H249.477ZM270.596 41.3H267.936V52.42H270.596V41.3ZM260.076 44.78H262.016V49.38C261.376 49.42 260.716 49.44 260.076 49.46V44.78ZM266.696 48.98C265.996 49.08 265.296 49.14 264.556 49.2V44.78H265.996V42.68H256.076V44.78H257.536V49.52C256.856 49.52 256.216 49.52 255.616 49.52L255.896 51.68C258.936 51.68 263.176 51.58 266.876 50.88L266.696 48.98ZM264.416 57.72C262.016 57.72 260.736 57.26 260.736 56.24C260.736 55.24 262.016 54.76 264.416 54.76C266.816 54.76 268.076 55.24 268.076 56.24C268.076 57.26 266.816 57.72 264.416 57.72ZM264.416 52.76C260.496 52.76 258.096 54.04 258.096 56.24C258.096 58.44 260.496 59.72 264.416 59.72C268.316 59.72 270.716 58.44 270.716 56.24C270.716 54.04 268.316 52.76 264.416 52.76ZM279.014 53.8C277.774 53.8 276.854 52.96 276.854 51.56C276.854 50.16 277.774 49.3 279.014 49.3C280.254 49.3 281.154 50.16 281.154 51.54C281.154 52.96 280.254 53.8 279.014 53.8ZM279.014 47.16C276.334 47.16 274.334 48.98 274.334 51.54C274.334 54.14 276.334 55.96 279.014 55.96C281.674 55.96 283.654 54.14 283.654 51.54C283.654 48.98 281.674 47.16 279.014 47.16ZM280.314 41.62H277.674V44.02H273.594V46.12H284.314V44.02H280.314V41.62ZM290.794 48.5H288.154V41.3H285.514V59.72H288.154V50.68H290.794V48.5ZM297.972 42.9H295.432V46C295.432 49.14 294.452 52.44 291.752 54.08L293.332 56.06C294.992 55.06 296.072 53.3 296.712 51.26C297.292 53.12 298.272 54.68 299.832 55.64L301.272 53.6C298.772 51.94 297.972 48.88 297.972 45.9V42.9ZM301.652 47.52H299.332V49.66H301.652V58.9H304.112V41.6H301.652V47.52ZM305.392 41.3V59.72H307.892V41.3H305.392ZM316.791 51.92C317.431 52.04 318.091 52.1 318.811 52.1C319.531 52.1 320.211 52.04 320.851 51.92V55.44H316.791V51.92ZM318.811 44.28C321.371 44.28 323.091 45.32 323.091 47.16C323.091 48.98 321.371 50.04 318.811 50.04C316.251 50.04 314.551 48.98 314.551 47.16C314.551 45.32 316.251 44.28 318.811 44.28ZM323.471 55.44V50.94C324.851 50.08 325.691 48.76 325.691 47.16C325.691 44.14 322.791 42.2 318.811 42.2C314.851 42.2 311.951 44.14 311.951 47.16C311.931 48.76 312.771 50.08 314.171 50.94V55.44H310.491V57.58H327.171V55.44H323.471ZM332.089 53.26H329.709L329.209 43.72H332.589L332.089 53.26ZM329.169 56.6C329.169 55.9867 329.336 55.56 329.669 55.32C330.003 55.0667 330.409 54.94 330.889 54.94C331.356 54.94 331.756 55.0667 332.089 55.32C332.423 55.56 332.589 55.9867 332.589 56.6C332.589 57.1867 332.423 57.6133 332.089 57.88C331.756 58.1333 331.356 58.26 330.889 58.26C330.409 58.26 330.003 58.1333 329.669 57.88C329.336 57.6133 329.169 57.1867 329.169 56.6ZM351.883 58H339.907V55.48L344.203 51.136C345.067 50.24 345.763 49.496 346.291 48.904C346.819 48.296 347.203 47.752 347.443 47.272C347.683 46.776 347.803 46.248 347.803 45.688C347.803 45 347.611 44.488 347.227 44.152C346.859 43.816 346.355 43.648 345.715 43.648C345.059 43.648 344.419 43.8 343.795 44.104C343.171 44.408 342.515 44.84 341.827 45.4L339.859 43.072C340.355 42.64 340.875 42.24 341.419 41.872C341.979 41.504 342.619 41.208 343.339 40.984C344.075 40.744 344.955 40.624 345.979 40.624C347.099 40.624 348.059 40.832 348.859 41.248C349.675 41.648 350.299 42.2 350.731 42.904C351.179 43.592 351.403 44.376 351.403 45.256C351.403 45.976 351.291 46.64 351.067 47.248C350.859 47.856 350.547 48.448 350.131 49.024C349.731 49.584 349.235 50.168 348.643 50.776C348.051 51.368 347.379 52.016 346.627 52.72L344.419 54.784V54.952H351.883V58ZM358.058 55.48C357.914 56.04 357.73 56.648 357.506 57.304C357.282 57.944 357.042 58.584 356.786 59.224C356.53 59.88 356.266 60.504 355.994 61.096H353.426C353.586 60.456 353.738 59.784 353.882 59.08C354.026 58.392 354.162 57.712 354.29 57.04C354.418 56.368 354.522 55.76 354.602 55.216H357.89L358.058 55.48ZM372.365 49.432C372.365 50.808 372.253 52.04 372.029 53.128C371.821 54.216 371.477 55.144 370.997 55.912C370.533 56.664 369.917 57.24 369.149 57.64C368.397 58.04 367.469 58.24 366.365 58.24C364.989 58.24 363.861 57.888 362.981 57.184C362.101 56.48 361.445 55.472 361.013 54.16C360.597 52.848 360.389 51.272 360.389 49.432C360.389 47.576 360.581 45.992 360.965 44.68C361.349 43.368 361.981 42.36 362.861 41.656C363.741 40.952 364.909 40.6 366.365 40.6C367.741 40.6 368.869 40.952 369.749 41.656C370.629 42.344 371.285 43.352 371.717 44.68C372.149 45.992 372.365 47.576 372.365 49.432ZM363.989 49.432C363.989 50.728 364.061 51.816 364.205 52.696C364.349 53.56 364.589 54.216 364.925 54.664C365.277 55.096 365.757 55.312 366.365 55.312C366.973 55.312 367.445 55.096 367.781 54.664C368.133 54.232 368.381 53.584 368.525 52.72C368.685 51.84 368.765 50.744 368.765 49.432C368.765 48.12 368.685 47.032 368.525 46.168C368.381 45.288 368.133 44.632 367.781 44.2C367.445 43.752 366.973 43.528 366.365 43.528C365.757 43.528 365.277 43.752 364.925 44.2C364.589 44.632 364.349 45.288 364.205 46.168C364.061 47.032 363.989 48.12 363.989 49.432ZM386.1 49.432C386.1 50.808 385.988 52.04 385.764 53.128C385.556 54.216 385.212 55.144 384.732 55.912C384.268 56.664 383.652 57.24 382.884 57.64C382.132 58.04 381.204 58.24 380.1 58.24C378.724 58.24 377.596 57.888 376.716 57.184C375.836 56.48 375.18 55.472 374.748 54.16C374.332 52.848 374.124 51.272 374.124 49.432C374.124 47.576 374.316 45.992 374.7 44.68C375.084 43.368 375.716 42.36 376.596 41.656C377.476 40.952 378.644 40.6 380.1 40.6C381.476 40.6 382.604 40.952 383.484 41.656C384.364 42.344 385.02 43.352 385.452 44.68C385.884 45.992 386.1 47.576 386.1 49.432ZM377.724 49.432C377.724 50.728 377.796 51.816 377.94 52.696C378.084 53.56 378.324 54.216 378.66 54.664C379.012 55.096 379.492 55.312 380.1 55.312C380.708 55.312 381.18 55.096 381.516 54.664C381.868 54.232 382.116 53.584 382.26 52.72C382.42 51.84 382.5 50.744 382.5 49.432C382.5 48.12 382.42 47.032 382.26 46.168C382.116 45.288 381.868 44.632 381.516 44.2C381.18 43.752 380.708 43.528 380.1 43.528C379.492 43.528 379.012 43.752 378.66 44.2C378.324 44.632 378.084 45.288 377.94 46.168C377.796 47.032 377.724 48.12 377.724 49.432ZM399.834 49.432C399.834 50.808 399.722 52.04 399.498 53.128C399.29 54.216 398.946 55.144 398.466 55.912C398.002 56.664 397.386 57.24 396.618 57.64C395.866 58.04 394.938 58.24 393.834 58.24C392.458 58.24 391.33 57.888 390.45 57.184C389.57 56.48 388.914 55.472 388.482 54.16C388.066 52.848 387.858 51.272 387.858 49.432C387.858 47.576 388.05 45.992 388.434 44.68C388.818 43.368 389.45 42.36 390.33 41.656C391.21 40.952 392.378 40.6 393.834 40.6C395.21 40.6 396.338 40.952 397.218 41.656C398.098 42.344 398.754 43.352 399.186 44.68C399.618 45.992 399.834 47.576 399.834 49.432ZM391.458 49.432C391.458 50.728 391.53 51.816 391.674 52.696C391.818 53.56 392.058 54.216 392.394 54.664C392.746 55.096 393.226 55.312 393.834 55.312C394.442 55.312 394.914 55.096 395.25 54.664C395.602 54.232 395.85 53.584 395.994 52.72C396.154 51.84 396.234 50.744 396.234 49.432C396.234 48.12 396.154 47.032 395.994 46.168C395.85 45.288 395.602 44.632 395.25 44.2C394.914 43.752 394.442 43.528 393.834 43.528C393.226 43.528 392.746 43.752 392.394 44.2C392.058 44.632 391.818 45.288 391.674 46.168C391.53 47.032 391.458 48.12 391.458 49.432ZM413.041 50.8V52.96H417.193V54.712H420.361V37.96H417.193V50.8H413.041ZM408.793 41.008C410.257 41.008 411.289 41.584 411.289 42.664C411.289 43.744 410.257 44.296 408.793 44.296C407.305 44.296 406.273 43.744 406.273 42.664C406.273 41.584 407.305 41.008 408.793 41.008ZM408.793 46.6C412.009 46.6 414.289 45.016 414.289 42.664C414.289 40.312 412.009 38.704 408.793 38.704C405.553 38.704 403.297 40.312 403.297 42.664C403.297 45.016 405.553 46.6 408.793 46.6ZM407.617 57.16V54.136H410.665V49.96C412.441 49.816 414.217 49.624 415.945 49.336L415.729 47.08C411.073 47.68 405.697 47.728 401.665 47.752L402.073 50.272C403.729 50.272 405.577 50.248 407.521 50.152V53.104H404.449V59.68H420.841V57.16H407.617ZM443.249 47.992C439.769 46.96 438.257 44.488 438.209 41.968H442.529V39.424H430.577V41.968H434.969C434.921 44.728 433.337 47.536 429.761 48.736L431.345 51.208C433.937 50.368 435.689 48.616 436.673 46.432C437.633 48.256 439.313 49.72 441.737 50.44L443.249 47.992ZM440.249 57.64C437.417 57.64 435.905 57.04 435.905 55.792C435.905 54.52 437.417 53.92 440.249 53.92C443.057 53.92 444.569 54.52 444.569 55.792C444.569 57.04 443.057 57.64 440.249 57.64ZM440.249 51.472C435.641 51.472 432.761 53.08 432.761 55.792C432.761 58.48 435.641 60.064 440.249 60.064C444.833 60.064 447.713 58.48 447.713 55.792C447.713 53.08 444.833 51.472 440.249 51.472ZM447.473 43.048V37.96H444.305V51.088H447.473V45.64H450.401V43.048H447.473ZM460.407 52.432H455.967V47.536H460.407V52.432ZM460.407 45.064H455.967V39.712H452.823V54.952H463.551V39.712H460.407V45.064ZM472.671 46.192H469.455V37.984H466.287V60.064H469.455V48.832H472.671V46.192ZM494.221 48.64H491.317C491.869 45.544 491.869 43.288 491.869 41.224V39.232H476.533V41.776H488.773C488.773 43.672 488.725 45.832 488.173 48.64H474.253V51.184H482.509V60.064H485.725V51.184H494.221V48.64ZM500.603 40.048H497.459V54.616H499.427C502.787 54.616 506.459 54.376 510.227 53.584L509.891 50.944C506.651 51.592 503.507 51.832 500.603 51.904V40.048ZM511.595 37.936V60.04H514.763V37.936H511.595ZM537.628 39.592H532.708V37.792H529.516V39.592H524.596V41.968H537.628V39.592ZM528.724 46.12C528.724 45.184 529.66 44.728 531.124 44.728C532.588 44.728 533.524 45.184 533.524 46.12C533.524 47.032 532.588 47.488 531.124 47.488C529.66 47.488 528.724 47.032 528.724 46.12ZM536.548 46.12C536.548 43.888 534.412 42.496 531.124 42.496C527.86 42.496 525.7 43.888 525.7 46.12C525.7 48.328 527.86 49.72 531.124 49.72C534.412 49.72 536.548 48.328 536.548 46.12ZM530.596 56.368H542.02V50.752H527.428V53.056H538.9V54.208H527.452V59.896H542.668V57.592H530.596V56.368ZM542.02 42.64V37.936H538.852V49.888H542.02V45.232H544.948V42.64H542.02ZM565.058 37.984H561.866V53.848H565.058V37.984ZM550.106 44.992C550.106 43.168 551.402 42.112 553.034 42.112C554.69 42.112 555.938 43.168 555.938 44.992C555.938 46.768 554.69 47.848 553.034 47.848C551.402 47.848 550.106 46.768 550.106 44.992ZM559.034 44.992C559.034 41.728 556.418 39.376 553.034 39.376C549.65 39.376 547.01 41.728 547.01 44.992C547.01 48.208 549.65 50.584 553.034 50.584C556.418 50.584 559.034 48.208 559.034 44.992ZM553.514 57.16V52.288H550.346V59.68H565.61V57.16H553.514Z" fill="white"/>
<g clip-path="url(#clip1_16_84)" filter="url(#filter0_d_16_84)">
<g filter="url(#filter1_d_16_84)">
<path fill-rule="evenodd" clip-rule="evenodd" d="M777.107 20.855L828.929 13.7847C833.565 13.1521 837.626 16.3615 838.076 20.9597L842.213 63.2272C842.663 67.8254 839.302 72.0772 834.725 72.7017L782.903 79.7721C780.705 80.1019 778.506 79.5059 776.797 78.1559L753.689 59.8927C750.144 57.0908 749.625 51.7852 752.536 48.1026L771.507 24.0982C772.909 22.3238 774.936 21.1513 777.107 20.855Z" fill="white"/>
</g>
<path d="M782.581 57.8758L770.71 59.4579L770.377 56.9599L774.062 52.0865C774.8 51.0842 775.391 50.2548 775.837 49.5982C776.28 48.9258 776.588 48.3359 776.763 47.8284C776.935 47.305 776.984 46.7658 776.91 46.2107C776.82 45.5287 776.562 45.0466 776.137 44.7642C775.727 44.4798 775.206 44.3799 774.571 44.4644C773.921 44.5511 773.307 44.7863 772.728 45.17C772.15 45.5538 771.557 46.0687 770.949 46.7147L768.69 44.667C769.125 44.1733 769.588 43.7081 770.078 43.2715C770.585 42.8327 771.18 42.4548 771.864 42.1376C772.562 41.8025 773.418 41.5673 774.433 41.432C775.544 41.2841 776.523 41.3634 777.371 41.6701C778.232 41.9588 778.924 42.4235 779.445 43.0643C779.98 43.6871 780.306 44.4346 780.422 45.3069C780.517 46.0206 780.494 46.6936 780.352 47.3258C780.226 47.956 779.995 48.584 779.659 49.2099C779.336 49.8179 778.922 50.4623 778.415 51.1431C777.907 51.8082 777.326 52.5392 776.674 53.3364L774.758 55.674L774.78 55.8405L782.178 54.8545L782.581 57.8758ZM788.368 54.5623C788.3 55.1364 788.198 55.7634 788.062 56.4432C787.925 57.1072 787.771 57.7733 787.602 58.4415C787.435 59.1256 787.256 59.779 787.064 60.4017L784.519 60.7409C784.593 60.0854 784.655 59.3992 784.705 58.6824C784.756 57.9814 784.801 57.2894 784.84 56.6064C784.878 55.9233 784.9 55.3069 784.908 54.7571L788.167 54.3228L788.368 54.5623ZM801.752 46.6772C801.934 48.0411 801.985 49.2771 801.907 50.3852C801.845 51.4911 801.626 52.4565 801.252 53.2811C800.891 54.0878 800.357 54.7402 799.648 55.2381C798.956 55.7339 798.062 56.0548 796.968 56.2006C795.604 56.3824 794.439 56.1825 793.474 55.6009C792.509 55.0193 791.725 54.1068 791.124 52.8634C790.538 51.6178 790.124 50.0831 789.881 48.2592C789.636 46.4195 789.617 44.824 789.824 43.4728C790.031 42.1216 790.525 41.0389 791.304 40.2248C792.083 39.4108 793.194 38.9076 794.638 38.7152C796.002 38.5334 797.166 38.7333 798.132 39.3149C799.095 39.8807 799.878 40.7932 800.482 42.0525C801.083 43.2959 801.507 44.8375 801.752 46.6772ZM793.449 47.7837C793.62 49.0683 793.836 50.1373 794.095 50.9905C794.351 51.828 794.676 52.4465 795.068 52.8462C795.474 53.2279 795.979 53.3786 796.581 53.2983C797.184 53.218 797.623 52.9415 797.899 52.4689C798.191 51.9942 798.351 51.3191 798.38 50.4437C798.422 49.5502 798.357 48.4533 798.183 47.1528C798.01 45.8523 797.787 44.7844 797.514 43.9491C797.255 43.0958 796.923 42.4783 796.517 42.0966C796.125 41.6969 795.627 41.5372 795.025 41.6176C794.422 41.6979 793.976 41.9833 793.686 42.4739C793.41 42.9465 793.259 43.6284 793.232 44.5198C793.204 45.3952 793.276 46.4832 793.449 47.7837ZM815.366 44.8629C815.548 46.2268 815.599 47.4628 815.521 48.5709C815.459 49.6768 815.24 50.6421 814.866 51.4668C814.505 52.2735 813.971 52.9258 813.262 53.4238C812.57 53.9196 811.676 54.2405 810.582 54.3863C809.218 54.5681 808.053 54.3682 807.088 53.7866C806.123 53.205 805.339 52.2925 804.738 51.0491C804.152 49.8035 803.738 48.2688 803.495 46.4449C803.25 44.6052 803.231 43.0097 803.438 41.6585C803.645 40.3073 804.139 39.2246 804.918 38.4105C805.697 37.5964 806.809 37.0932 808.252 36.9009C809.616 36.7191 810.78 36.919 811.746 37.5006C812.709 38.0663 813.492 38.9788 814.096 40.2381C814.697 41.4816 815.121 43.0232 815.366 44.8629ZM807.063 45.9694C807.234 47.254 807.45 48.323 807.709 49.1762C807.965 50.0136 808.29 50.6322 808.682 51.0319C809.088 51.4136 809.593 51.5643 810.195 51.484C810.798 51.4036 811.237 51.1272 811.513 50.6546C811.805 50.1799 811.965 49.5048 811.994 48.6293C812.036 47.7359 811.971 46.639 811.797 45.3384C811.624 44.0379 811.401 42.9701 811.128 42.1348C810.869 41.2815 810.537 40.664 810.131 40.2823C809.739 39.8826 809.241 39.7229 808.639 39.8032C808.036 39.8835 807.59 40.169 807.3 40.6596C807.024 41.1322 806.873 41.8141 806.846 42.7054C806.818 43.5809 806.89 44.6689 807.063 45.9694ZM828.98 43.0486C829.162 44.4125 829.213 45.6485 829.135 46.7566C829.073 47.8625 828.854 48.8278 828.48 49.6525C828.119 50.4592 827.585 51.1115 826.876 51.6095C826.184 52.1053 825.29 52.4261 824.196 52.572C822.832 52.7538 821.667 52.5538 820.702 51.9723C819.737 51.3907 818.953 50.4782 818.352 49.2347C817.766 47.9892 817.352 46.4545 817.109 44.6306C816.864 42.7909 816.845 41.1954 817.052 39.8442C817.259 38.4929 817.753 37.4103 818.532 36.5962C819.311 35.7821 820.423 35.2789 821.866 35.0866C823.23 34.9048 824.394 35.1047 825.36 35.6863C826.323 36.252 827.106 37.1645 827.71 38.4238C828.311 39.6672 828.735 41.2088 828.98 43.0486ZM820.677 44.155C820.848 45.4397 821.064 46.5086 821.323 47.3619C821.579 48.1993 821.904 48.8179 822.296 49.2175C822.702 49.5993 823.207 49.75 823.809 49.6696C824.412 49.5893 824.851 49.3129 825.127 48.8403C825.419 48.3656 825.579 47.6905 825.608 46.815C825.65 45.9216 825.585 44.8246 825.411 43.5241C825.238 42.2236 825.015 41.1557 824.742 40.3204C824.483 39.4672 824.151 38.8497 823.745 38.468C823.353 38.0683 822.855 37.9086 822.253 37.9889C821.65 38.0692 821.204 38.3547 820.914 38.8452C820.638 39.3178 820.487 39.9998 820.46 40.8911C820.432 41.7666 820.504 42.8545 820.677 44.155Z" fill="#121212"/>
</g>
<path d="M863 17.7061C863 20.4675 860.761 22.7061 858 22.7061C855.239 22.7061 853 20.4675 853 17.7061C853 14.9446 855.239 12.7061 858 12.7061C860.761 12.7061 863 14.9446 863 17.7061ZM856.023 17.7061C856.023 18.7977 856.908 19.6827 858 19.6827C859.092 19.6827 859.977 18.7977 859.977 17.7061C859.977 16.6144 859.092 15.7294 858 15.7294C856.908 15.7294 856.023 16.6144 856.023 17.7061Z" fill="white"/>
<path d="M716 72C716 74.7614 713.761 77 711 77C708.239 77 706 74.7614 706 72C706 69.2386 708.239 67 711 67C713.761 67 716 69.2386 716 72ZM709.023 72C709.023 73.0917 709.908 73.9766 711 73.9766C712.092 73.9766 712.977 73.0917 712.977 72C712.977 70.9083 712.092 70.0234 711 70.0234C709.908 70.0234 709.023 70.9083 709.023 72Z" fill="white"/>
<rect x="742.196" y="77.3987" width="13" height="3" rx="1.5" transform="rotate(143.092 742.196 77.3987)" fill="white"/>
<rect x="756.458" y="22.1772" width="13" height="3" rx="1.5" transform="rotate(-139.043 756.458 22.1772)" fill="white"/>
<rect x="701.002" y="40.9661" width="13" height="3" rx="1.5" transform="rotate(-106.152 701.002 40.9661)" fill="white"/>
<rect x="731.478" y="50.7449" width="13" height="3" rx="1.5" transform="rotate(-106.152 731.478 50.7449)" fill="white"/>
<rect x="721.023" y="47.3264" width="13" height="3" rx="1.5" transform="rotate(-106.152 721.023 47.3264)" fill="white"/>
<rect x="700.175" y="39.2737" width="13" height="3" rx="1.5" transform="rotate(-41.894 700.175 39.2737)" fill="white"/>
<rect x="709.68" y="42.3813" width="13" height="3" rx="1.5" transform="rotate(-41.894 709.68 42.3813)" fill="white"/>
<rect x="720.136" y="45.8" width="13" height="3" rx="1.5" transform="rotate(-41.894 720.136 45.8)" fill="white"/>
<rect x="710.896" y="30.9341" width="13" height="3" rx="1.5" transform="rotate(78.1061 710.896 30.9341)" fill="white"/>
<rect x="890.085" y="32.9224" width="13" height="3" rx="1.5" transform="rotate(14.6408 890.085 32.9224)" fill="white"/>
<rect x="866.082" y="54.0964" width="13" height="3" rx="1.5" transform="rotate(14.6408 866.082 54.0964)" fill="white"/>
<rect x="874.371" y="46.8652" width="13" height="3" rx="1.5" transform="rotate(14.6408 874.371 46.8652)" fill="white"/>
<rect x="891.961" y="33.0791" width="13" height="3" rx="1.5" transform="rotate(78.8991 891.961 33.0791)" fill="white"/>
<rect x="884.426" y="39.6528" width="13" height="3" rx="1.5" transform="rotate(78.8991 884.426 39.6528)" fill="white"/>
<rect x="876.137" y="46.884" width="13" height="3" rx="1.5" transform="rotate(78.8991 876.137 46.884)" fill="white"/>
<rect x="893.637" y="46.5576" width="13" height="3" rx="1.5" transform="rotate(-161.101 893.637 46.5576)" fill="white"/>
<rect x="865.587" y="84.8752" width="8.70072" height="3" rx="1.5" transform="rotate(-150.691 865.587 84.8752)" fill="white"/>
</g>
<defs>
<filter id="filter0_d_16_84" x="724" y="-30" width="161.248" height="161.932" filterUnits="userSpaceOnUse" color-interpolation-filters="sRGB">
<feFlood flood-opacity="0" result="BackgroundImageFix"/>
<feColorMatrix in="SourceAlpha" type="matrix" values="0 0 0 0 0 0 0 0 0 0 0 0 0 0 0 0 0 0 127 0" result="hardAlpha"/>
<feOffset dy="4"/>
<feGaussianBlur stdDeviation="2"/>
<feComposite in2="hardAlpha" operator="out"/>
<feColorMatrix type="matrix" values="0 0 0 0 0 0 0 0 0 0 0 0 0 0 0 0 0 0 0.25 0"/>
<feBlend mode="normal" in2="BackgroundImageFix" result="effect1_dropShadow_16_84"/>
<feBlend mode="normal" in="SourceGraphic" in2="effect1_dropShadow_16_84" result="shape"/>
</filter>
<filter id="filter1_d_16_84" x="746.651" y="13.7051" width="99.6023" height="74.156" filterUnits="userSpaceOnUse" color-interpolation-filters="sRGB">
<feFlood flood-opacity="0" result="BackgroundImageFix"/>
<feColorMatrix in="SourceAlpha" type="matrix" values="0 0 0 0 0 0 0 0 0 0 0 0 0 0 0 0 0 0 127 0" result="hardAlpha"/>
<feOffset dy="4"/>
<feGaussianBlur stdDeviation="2"/>
<feComposite in2="hardAlpha" operator="out"/>
<feColorMatrix type="matrix" values="0 0 0 0 0 0 0 0 0 0 0 0 0 0 0 0 0 0 0.25 0"/>
<feBlend mode="normal" in2="BackgroundImageFix" result="effect1_dropShadow_16_84"/>
<feBlend mode="normal" in="SourceGraphic" in2="effect1_dropShadow_16_84" result="shape"/>
</filter>
<clipPath id="clip0_16_84">
<rect width="1064" height="98" fill="white"/>
</clipPath>
<clipPath id="clip1_16_84">
<rect width="111.427" height="107.267" fill="white" transform="translate(728 57.4204) rotate(-51.6794)"/>
</clipPath>
</defs>
</svg>
